<svg xmlns="http://www.w3.org/2000/svg" viewBox="0 0 500 500"><g id="freepik--background-complete--inject-134"><path d="M271.12,208.63H189.27s4.06-5.3,8.55-6c0,0,8.73-26,23.34-26.16,13.58-.17,19,16,19,16s6.29-7.25,12.3-3.94,9.42,12.8,9.42,12.8S268.67,205,271.12,208.63Z" style="fill:#ebebeb"></path><path d="M320.23,89.4h-55.6s2.77-3.6,5.81-4.05c0,0,5.93-17.64,15.85-17.77,9.23-.12,12.93,10.85,12.93,10.85s4.27-4.92,8.36-2.67S314,84.45,314,84.45,318.56,86.93,320.23,89.4Z" style="fill:#ebebeb"></path><path d="M365.45,145.81H469s0-6.61-14.26-7.91c0,0-13-28.9-32.9-25-12.38,2.42-18.7,19.42-18.7,19.42s-9.36-13.38-16.84-10.79-11.93,16.83-11.93,16.83S366.62,142.07,365.45,145.81Z" style="fill:#ebebeb"></path><path d="M84.55,155.4h70.39s-6.64-6.18-9.59-6.18-11.57-20.76-22.58-19.88-16.85,16.34-16.85,16.34S92.53,141.49,84.55,155.4Z" style="fill:#ebebeb"></path><path d="M31,206.14H67.68s-3.46-3.22-5-3.22-6-10.8-11.75-10.34-8.77,8.5-8.77,8.5S35.19,198.9,31,206.14Z" style="fill:#ebebeb"></path><path d="M372.24,238.69h60.19s-3-3.89-6.29-4.38c0,0-6.42-19.1-17.16-19.24-10-.13-14,11.75-14,11.75s-4.62-5.33-9-2.89-6.93,9.41-6.93,9.41S374,236,372.24,238.69Z" style="fill:#ebebeb"></path><path d="M28.08,325.77s33.11-22.17,45-22.76,19.61,2.92,27.92,2.34,48.59-42.3,65.81-42.53,46,9.92,53,7.78,54.56-32.39,73.89-32.39c33.81,0,63.29,58.66,77.85,56.77s26.43-2.47,37.68,1.91,62.71,28.88,62.71,28.88Z" style="fill:#ebebeb"></path></g><g id="freepik--Sun--inject-134"><circle cx="154.8" cy="88.81" r="28.44" transform="translate(-22.12 65.37) rotate(-22.3)" style="fill:#FFC727;opacity:0.6000000000000001"></circle><circle cx="154.8" cy="88.81" r="21.78" transform="translate(13.21 197.44) rotate(-67.34)" style="fill:#FFC727"></circle></g><g id="freepik--Trees--inject-134"><polygon points="13.4 325.77 72.55 325.52 131.7 325.44 250 325.27 368.3 325.44 427.45 325.52 486.6 325.77 427.45 326.01 368.3 326.1 250 326.27 131.7 326.1 72.55 326.01 13.4 325.77" style="fill:#263238"></polygon><path d="M477.22,319.18c-.48.48-6.05.69-8.08.69s-7.6-.21-8.08-.69,6.27-37.53,8.08-37.53S477.7,318.7,477.22,319.18Z" style="fill:#455a64"></path><path d="M477.33,309.74c-1.38.52-6.48,2.6-7.58,3.21v-.7l3.7-2.16c1.32-.77,2.74-1.46,4-2.36.06-.05,0-.17-.06-.14a34.27,34.27,0,0,0-3.89,2.15c-1.26.74-2.5,1.5-3.73,2.26,0-1.77,0-3.55,0-5.32a43,43,0,0,0,5.82-3c.06,0,0-.15-.05-.12a42.28,42.28,0,0,0-5.77,2.84c0-.93,0-1.85,0-2.77-.05-4.76-.06-9.52-.18-14.27,1.21-.61,2.46-1.15,3.67-1.76.08,0,0-.18-.07-.15-1.22.48-2.4,1.05-3.61,1.58-.06-2.45-.16-4.91-.31-7.35a.06.06,0,1,0-.12,0c-.17,4.55-.16,9.11-.1,13.67-1.25-1-2.59-1.89-3.87-2.86,0,0-.09.05,0,.08,1.33,1,2.58,2.14,3.91,3.15,0,.26,0,.52,0,.78-1.35-.63-2.73-1.2-4.11-1.79-.1-.05-.2.11-.09.16,1.4.67,2.79,1.35,4.21,2,0,2.25.07,4.51.1,6.77,0,3.94.14,7.88.22,11.82-2.56-1.3-5.15-2.56-7.75-3.78-.1,0-.19.09-.09.14a79.93,79.93,0,0,0,7.85,3.94c.07,3.28.13,6.55.18,9.83a.16.16,0,0,0,.31,0c-.05-4.18-.06-8.35-.07-12.53a79.09,79.09,0,0,0,7.68-3.12C477.55,309.91,477.46,309.69,477.33,309.74Z" style="fill:#37474f"></path><path d="M378.85,319.33c-.47.47-5.91.68-7.89.68s-7.42-.21-7.89-.68,6.12-36.65,7.89-36.65S379.32,318.87,378.85,319.33Z" style="fill:#455a64"></path><path d="M379,310.11c-1.35.52-6.33,2.54-7.4,3.14,0-.23,0-.46,0-.68,1.2-.71,2.41-1.41,3.62-2.11s2.68-1.43,3.89-2.31c.05,0,0-.17-.06-.13a31.29,31.29,0,0,0-3.8,2.1c-1.23.72-2.44,1.46-3.65,2.2,0-1.73,0-3.47,0-5.2a41.53,41.53,0,0,0,5.68-2.89c.06,0,0-.15,0-.12a40.87,40.87,0,0,0-5.63,2.78c0-.9,0-1.81,0-2.71-.05-4.64-.06-9.29-.18-13.93,1.18-.6,2.4-1.12,3.58-1.72.08,0,0-.18-.06-.15-1.2.47-2.35,1-3.53,1.54-.06-2.39-.15-4.79-.3-7.18a.06.06,0,0,0-.12,0c-.17,4.45-.15,8.9-.1,13.35-1.22-1-2.53-1.84-3.77-2.79,0,0-.1.05,0,.08,1.3,1,2.52,2.09,3.83,3.08,0,.25,0,.5,0,.76-1.33-.61-2.68-1.18-4-1.75-.1,0-.2.11-.09.16,1.37.65,2.73,1.32,4.11,1.94,0,2.2.07,4.41.1,6.61.05,3.85.13,7.7.22,11.55-2.51-1.27-5-2.5-7.57-3.7-.1,0-.19.09-.09.15a80.62,80.62,0,0,0,7.66,3.85c.07,3.2.14,6.39.18,9.59a.15.15,0,1,0,.3,0c-.05-4.08-.05-8.16-.06-12.24a72,72,0,0,0,7.49-3.05C379.17,310.27,379.09,310.06,379,310.11Z" style="fill:#37474f"></path><path d="M455.31,318.85c-.51.5-6.36.72-8.49.72s-8-.22-8.49-.72,6.59-39.42,8.49-39.42S455.81,318.35,455.31,318.85Z" style="fill:#37474f"></path><path d="M455.42,308.93c-1.44.55-6.8,2.74-8,3.37v-.73l3.88-2.27a46.13,46.13,0,0,0,4.19-2.48c.06-.05,0-.18-.06-.14a34,34,0,0,0-4.09,2.26c-1.32.77-2.62,1.57-3.92,2.37,0-1.87,0-3.73,0-5.6a43.26,43.26,0,0,0,6.11-3.1c.07,0,0-.16-.05-.13a44.78,44.78,0,0,0-6.06,3c0-1,0-1.94,0-2.91-.05-5-.06-10-.19-15,1.27-.64,2.58-1.21,3.85-1.85.08,0,0-.19-.06-.15-1.29.5-2.53,1.1-3.8,1.65-.07-2.57-.17-5.15-.32-7.72a.07.07,0,0,0-.14,0c-.17,4.78-.16,9.57-.1,14.36-1.32-1.06-2.72-2-4.06-3,0,0-.1,0,0,.08,1.4,1.07,2.71,2.25,4.12,3.31,0,.27,0,.54,0,.81-1.43-.65-2.88-1.26-4.32-1.87-.11-.05-.21.11-.1.16,1.47.71,2.93,1.43,4.42,2.09q.06,3.56.11,7.11c.05,4.14.14,8.28.23,12.42q-4-2-8.14-4c-.11-.05-.2.1-.09.15a83.46,83.46,0,0,0,8.24,4.14c.07,3.44.14,6.88.18,10.32a.17.17,0,0,0,.33,0c0-4.39-.06-8.77-.07-13.16a80,80,0,0,0,8.06-3.28C455.66,309.11,455.56,308.88,455.42,308.93Z" style="fill:#455a64"></path><path d="M396.75,318.85c-.5.5-6.35.72-8.48.72s-8-.22-8.49-.72,6.59-39.42,8.49-39.42S397.26,318.35,396.75,318.85Z" style="fill:#37474f"></path><path d="M396.87,308.93c-1.44.55-6.8,2.74-8,3.37v-.73l3.88-2.27a47.54,47.54,0,0,0,4.19-2.48c.06-.05,0-.18-.06-.14a34.86,34.86,0,0,0-4.1,2.26c-1.31.77-2.62,1.57-3.91,2.37l0-5.6a43.26,43.26,0,0,0,6.11-3.1.07.07,0,0,0-.06-.13,45.25,45.25,0,0,0-6.05,3c0-1,0-1.94,0-2.91-.05-5-.06-10-.19-15,1.27-.64,2.58-1.21,3.85-1.85.08,0,0-.19-.07-.15-1.28.5-2.53,1.1-3.79,1.65-.07-2.57-.17-5.15-.32-7.72a.07.07,0,0,0-.14,0c-.18,4.78-.16,9.57-.1,14.36-1.32-1.06-2.72-2-4.06-3-.05,0-.1,0-.05.08,1.4,1.07,2.71,2.25,4.11,3.31,0,.27,0,.54,0,.81-1.42-.65-2.87-1.26-4.31-1.87-.12-.05-.22.11-.1.16,1.47.71,2.93,1.43,4.42,2.09q0,3.56.11,7.11c0,4.14.14,8.28.23,12.42q-4.05-2-8.14-4c-.11-.05-.2.1-.09.15a84.41,84.41,0,0,0,8.23,4.14c.08,3.44.15,6.88.19,10.32a.17.17,0,0,0,.33,0c-.05-4.39-.06-8.77-.07-13.16a80,80,0,0,0,8.06-3.28C397.1,309.11,397,308.88,396.87,308.93Z" style="fill:#455a64"></path><path d="M288.12,318.85c-.5.5-6.36.72-8.48.72s-8-.22-8.49-.72,6.59-39.42,8.49-39.42S288.62,318.35,288.12,318.85Z" style="fill:#37474f"></path><path d="M288.24,308.93c-1.45.55-6.81,2.74-8,3.37,0-.24,0-.49,0-.73l3.89-2.27a47.37,47.37,0,0,0,4.18-2.48c.07-.05,0-.18-.06-.14a34,34,0,0,0-4.09,2.26c-1.32.77-2.62,1.57-3.92,2.37,0-1.87,0-3.73,0-5.6a43.8,43.8,0,0,0,6.11-3.1c.06,0,0-.16-.06-.13a44.09,44.09,0,0,0-6.05,3c0-1,0-1.94,0-2.91-.06-5-.07-10-.19-15,1.27-.64,2.58-1.21,3.84-1.85.09,0,0-.19-.06-.15-1.29.5-2.53,1.1-3.79,1.65-.07-2.57-.17-5.15-.33-7.72a.07.07,0,1,0-.13,0c-.18,4.78-.16,9.57-.1,14.36-1.32-1.06-2.72-2-4.06-3-.05,0-.11,0-.05.08,1.4,1.07,2.71,2.25,4.11,3.31,0,.27,0,.54,0,.81-1.43-.65-2.87-1.26-4.32-1.87-.11-.05-.21.11-.09.16,1.46.71,2.93,1.43,4.42,2.09,0,2.37.07,4.74.1,7.11.06,4.14.15,8.28.23,12.42q-4-2-8.14-4c-.1-.05-.19.1-.09.15a85.72,85.72,0,0,0,8.24,4.14c.07,3.44.15,6.88.19,10.32,0,.21.33.21.32,0,0-4.39,0-8.77-.06-13.16a80.93,80.93,0,0,0,8.06-3.28C288.47,309.11,288.38,308.88,288.24,308.93Z" style="fill:#455a64"></path><path d="M430.34,320.93c.36.35,4.45.51,5.93.51s5.58-.16,5.93-.51-4.6-27.54-5.93-27.54S430,320.58,430.34,320.93Z" style="fill:#455a64"></path><path d="M430.26,314c1,.39,4.76,1.91,5.57,2.36v-.51l-2.72-1.59a30.78,30.78,0,0,1-2.92-1.74s0-.12,0-.09a22.78,22.78,0,0,1,2.86,1.58c.92.54,1.83,1.09,2.74,1.65,0-1.3,0-2.6,0-3.91a29.53,29.53,0,0,1-4.27-2.17c-.05,0,0-.11,0-.09a31.34,31.34,0,0,1,4.23,2.09c0-.68,0-1.36,0-2,0-3.48.05-7,.13-10.47-.88-.45-1.8-.84-2.69-1.29-.05,0,0-.13.05-.11.9.35,1.77.77,2.65,1.16.05-1.8.12-3.6.23-5.4a0,0,0,1,1,.09,0c.13,3.34.11,6.69.07,10,.92-.73,1.9-1.38,2.84-2.09,0,0,.07,0,0,.06-1,.74-1.89,1.57-2.87,2.31,0,.19,0,.38,0,.57,1-.46,2-.88,3-1.31.08,0,.15.08.07.11-1,.5-2.05,1-3.09,1.46,0,1.66-.05,3.32-.07,5,0,2.9-.11,5.79-.17,8.68,1.88-1,3.78-1.88,5.69-2.77.07,0,.14.06.07.1a60.83,60.83,0,0,1-5.76,2.9c-.05,2.4-.1,4.8-.13,7.21,0,.14-.23.14-.23,0,0-3.07,0-6.13.05-9.2a56.85,56.85,0,0,1-5.64-2.29C430.1,314.12,430.16,314,430.26,314Z" style="fill:#37474f"></path><path d="M261.92,320.93c.35.35,4.44.51,5.93.51s5.58-.16,5.93-.51-4.61-27.54-5.93-27.54S261.56,320.58,261.92,320.93Z" style="fill:#455a64"></path><path d="M261.83,314c1,.39,4.76,1.91,5.57,2.36v-.51c-.9-.54-1.81-1.06-2.72-1.59a30.78,30.78,0,0,1-2.92-1.74s0-.12,0-.09a22.78,22.78,0,0,1,2.86,1.58c.92.54,1.83,1.09,2.74,1.65,0-1.3,0-2.6,0-3.91a29.53,29.53,0,0,1-4.27-2.17s0-.11,0-.09a31.34,31.34,0,0,1,4.23,2.09c0-.68,0-1.36,0-2,0-3.48.05-7,.14-10.47-.89-.45-1.81-.84-2.69-1.29-.06,0,0-.13,0-.11.9.35,1.77.77,2.65,1.16.05-1.8.12-3.6.23-5.4a0,0,0,1,1,.09,0c.13,3.34.12,6.69.07,10,.92-.73,1.9-1.38,2.84-2.09,0,0,.07,0,0,.06-1,.74-1.9,1.57-2.88,2.31,0,.19,0,.38,0,.57,1-.46,2-.88,3-1.31.08,0,.15.08.07.11-1,.5-2.05,1-3.09,1.46,0,1.66-.05,3.32-.07,5q-.06,4.35-.17,8.68c1.89-1,3.78-1.88,5.69-2.77.08,0,.14.06.07.1a59.66,59.66,0,0,1-5.76,2.9c0,2.4-.1,4.8-.13,7.21a.12.12,0,0,1-.23,0c0-3.07,0-6.13,0-9.2a56.85,56.85,0,0,1-5.64-2.29C261.67,314.12,261.74,314,261.83,314Z" style="fill:#37474f"></path><path d="M392.89,320.93c.35.35,4.44.51,5.93.51s5.58-.16,5.93-.51-4.61-27.54-5.93-27.54S392.54,320.58,392.89,320.93Z" style="fill:#455a64"></path><path d="M392.81,314c1,.39,4.75,1.91,5.56,2.36v-.51c-.9-.54-1.81-1.06-2.71-1.59a29.73,29.73,0,0,1-2.93-1.74s0-.12,0-.09a22.78,22.78,0,0,1,2.86,1.58c.92.54,1.84,1.09,2.74,1.65,0-1.3,0-2.6,0-3.91a29.53,29.53,0,0,1-4.27-2.17s0-.11,0-.09a31.34,31.34,0,0,1,4.23,2.09c0-.68,0-1.36,0-2,0-3.48,0-7,.13-10.47-.89-.45-1.8-.84-2.69-1.29-.06,0,0-.13,0-.11.9.35,1.77.77,2.66,1.16,0-1.8.11-3.6.22-5.4,0-.06.09-.06.09,0,.13,3.34.12,6.69.08,10,.92-.73,1.9-1.38,2.83-2.09,0,0,.07,0,0,.06-1,.74-1.9,1.57-2.88,2.31v.57c1-.46,2-.88,3-1.31.08,0,.15.08.07.11-1,.5-2.05,1-3.09,1.46,0,1.66-.05,3.32-.07,5,0,2.9-.1,5.79-.16,8.68,1.88-1,3.78-1.88,5.69-2.77a.06.06,0,1,1,.06.1,58.53,58.53,0,0,1-5.76,2.9c-.05,2.4-.1,4.8-.13,7.21a.12.12,0,0,1-.23,0c0-3.07,0-6.13.05-9.2a57.67,57.67,0,0,1-5.63-2.29C392.64,314.12,392.71,314,392.81,314Z" style="fill:#37474f"></path></g><g id="freepik--Mountains--inject-134"><path d="M340.34,403c4.24,11.59,147.07,20.21,147.07,34.43,0,11.58-87.7,20.77-98.94,32.48s-20,29.53-20,29.53H500V318.75s-77.84,8.49-92.72,21.69,27.26,13.52,27.26,23.61c0,8.14-27.5,8.32-41.91,12.29C367.45,383.27,336.9,393.57,340.34,403Z" style="fill:#455a64"></path><path d="M498.23,340.93c-1.78,2.66-6.65,7-13,10.31s-19.29,13.3-22.28,16-25.61,9.31-30.55,9.13-33.51-1.4-39.8,0c14.41-4,41.91-4.15,41.91-12.29,0-7.71-24.6-9.72-29.57-16.12.36.09,6.28,1.71,11.87,3.65,5.77,2,37.49,5.65,41.81,3.75s14.64-8.41,20.29-11.74S500,338.27,498.23,340.93Z" style="fill:#37474f"></path><path d="M213.75,500s-1.27-14.74-37.89-37.52-55.28-31.51-54-47.39c1.7-21.72,98.37-31.11,160.59-40.09,42-6.06,69.25-9.56,69.25-19.59,0-10.64-47.26-15.43-47.26-22.74,0-8.41,109.8-6.9,109.8-6.9s-111.11-5.56-135-5.56S209.4,296,187.66,293.38,154,298.75,130.14,298,92.62,274.81,61.57,266.8,0,290.72,0,290.72V500Z" style="fill:#455a64"></path><path d="M144.38,443c-17.27-7.3-64.3-13.87-76.7-23.89S43.56,389,41.32,384.58,69.91,370.31,75,365.65s38.58,13.82,48.11,17.11,62.3,3.51,67.62,3.29,15.81-.5,16.34-.52c-44.64,6.91-84.18,15.74-85.26,29.56C121,425.48,128.71,432.8,144.38,443Z" style="fill:#37474f"></path><path d="M221.33,363.88c-.62,2.05-25.94-1.77-30.15-5.54s-10-9.31-10.86-11.53,11.75,2.22,15.07,4.43,14.19,4.44,17.74,6.21S221.67,362.76,221.33,363.88Z" style="fill:#37474f"></path></g><g id="freepik--Floor--inject-134"><path d="M0,500s29-25.65,42.33-35.48c8.59-6.31,61.8-7.08,68.89-8.74s31.31-16.8,48-25.77,79.34-3.21,90.76-3.38,26.52-13.16,45-17.61c36.63-8.81,88,.2,98.31,4.26,29.29,11.5,34.58,43.16,73,52.44,10.59,2.56,28.41,23.79,33.7,34.28H0Z" style="fill:#37474f"></path><path d="M216,500H69.91s54.9-19.83,64.86-29.36-1.57-13.53,2.2-20.35,25.68-19.77,39-24.28h0c25.13-2.71,65.12.76,74,.63a18.9,18.9,0,0,0,3.35-.38c-14.58,6.42-46.7,19.94-43.09,23.85,2.53,2.73,18.54,11.22,38.33,10.19,11.09-.57,8.71,10.63,9.34,15.54C259.32,486.65,216,500,216,500Z" style="fill:#263238;opacity:0.5"></path><path d="M438,476.84c-2-3-16.31-1.5-41,1.77s-48.23.07-43.1-3.39c3.62-2.44,35.78-3.24,43.1-5.79s24.08-3.25,30.73-6.95-1.82-20.11-8.8-30.27c12.17,13,23.22,27.67,47.37,33.51,10.59,2.56,28.41,23.79,33.7,34.28H302.82s55.07-4.7,68.2-5.79S440,479.83,438,476.84Z" style="fill:#263238;opacity:0.5"></path></g><g id="freepik--Birds--inject-134"><path d="M240.78,113.39a17.44,17.44,0,0,0-2.22-1,9,9,0,0,0-2.42-.56,2,2,0,0,0-.75.08,1.66,1.66,0,0,0-.24.11l-.14.11a3,3,0,0,0-.26.21,12.45,12.45,0,0,0-.89.89c-.54.62-1,1.26-1.51,1.91l.6-.21a18.83,18.83,0,0,0-2.48-.52,10.73,10.73,0,0,0-1.29-.09,4.15,4.15,0,0,0-.69,0,2.7,2.7,0,0,0-.36.09,2.09,2.09,0,0,0-.37.17,4.21,4.21,0,0,0-1,.94,11.41,11.41,0,0,0-.73,1,15,15,0,0,0-1.15,2.21c.53-.63,1-1.27,1.59-1.88a9.66,9.66,0,0,1,.83-.86,3.75,3.75,0,0,1,.87-.68,2.33,2.33,0,0,1,1-.1,9.61,9.61,0,0,1,1.15.16c.78.14,1.57.33,2.33.54l.39.1.22-.31c.44-.64.92-1.27,1.41-1.88a10.41,10.41,0,0,1,.74-.86c.07-.06.13-.13.19-.17l.09-.08,0,0a1.05,1.05,0,0,1,.42-.09,12.31,12.31,0,0,1,2.29.22C239.21,113.08,240,113.24,240.78,113.39Z" style="fill:#263238"></path><path d="M232,137a25.38,25.38,0,0,0-3-2,14.21,14.21,0,0,0-3.4-1.53,3.05,3.05,0,0,0-1.13-.1,1.36,1.36,0,0,0-.37.1l-.25.11a4.76,4.76,0,0,0-.45.24,16.15,16.15,0,0,0-1.55,1.05c-1,.74-1.88,1.54-2.79,2.36l.95-.13a27.52,27.52,0,0,0-3.49-1.49,13.49,13.49,0,0,0-1.87-.51,6.61,6.61,0,0,0-1-.13,3.71,3.71,0,0,0-.57,0c-.2,0-.4.1-.6.15a6.79,6.79,0,0,0-1.71,1.1,16.92,16.92,0,0,0-1.37,1.3,23.29,23.29,0,0,0-2.34,2.91c1-.78,1.91-1.57,2.89-2.3.48-.36,1-.72,1.47-1a5.85,5.85,0,0,1,1.48-.74,3.36,3.36,0,0,1,1.45.14,13.45,13.45,0,0,1,1.65.57c1.1.43,2.21.95,3.27,1.47l.53.27.42-.4c.84-.81,1.73-1.59,2.61-2.34.45-.38.9-.74,1.35-1.05l.33-.21.16-.08s0,0,.06,0a2,2,0,0,1,.65,0,17.57,17.57,0,0,1,3.29,1C229.82,136.09,230.92,136.56,232,137Z" style="fill:#263238"></path><path d="M90.89,82.36a19.58,19.58,0,0,0-2-1.3,9.84,9.84,0,0,0-2.3-1,2.28,2.28,0,0,0-.76,0,1.27,1.27,0,0,0-.24.07l-.17.09-.29.16a10.93,10.93,0,0,0-1,.74c-.64.51-1.23,1.07-1.81,1.63l.63-.11a19.82,19.82,0,0,0-2.36-.91,10.07,10.07,0,0,0-1.26-.3,3.75,3.75,0,0,0-.69-.07,2.4,2.4,0,0,0-.37,0,3,3,0,0,0-.4.11,4.43,4.43,0,0,0-1.12.77,12.6,12.6,0,0,0-.89.9,16.12,16.12,0,0,0-1.49,2c.63-.54,1.24-1.09,1.87-1.6.32-.25.64-.5,1-.72a4,4,0,0,1,1-.52,2.22,2.22,0,0,1,1,.06,8.34,8.34,0,0,1,1.11.35c.74.26,1.49.58,2.21.91l.36.16.27-.27c.54-.56,1.12-1.1,1.7-1.62.28-.26.58-.51.87-.73l.22-.14.1-.06,0,0a1.18,1.18,0,0,1,.43,0,12,12,0,0,1,2.22.59C89.38,81.8,90.13,82.09,90.89,82.36Z" style="fill:#263238"></path><path d="M110.69,79.16a25.74,25.74,0,0,0-2.25-2.84,13.63,13.63,0,0,0-2.79-2.47,3,3,0,0,0-1.05-.43,1.17,1.17,0,0,0-.38,0l-.27,0a4,4,0,0,0-.5.1,16.4,16.4,0,0,0-1.8.54c-1.15.42-2.25.91-3.36,1.43l.94.15a25.88,25.88,0,0,0-2.88-2.45,15.84,15.84,0,0,0-1.64-1,6.82,6.82,0,0,0-.94-.42,3.63,3.63,0,0,0-.55-.15,4.09,4.09,0,0,0-.61,0,6.49,6.49,0,0,0-2,.53c-.59.25-1.15.54-1.7.84A24.92,24.92,0,0,0,85.86,75c1.15-.45,2.29-.93,3.44-1.33A16.15,16.15,0,0,1,91,73.12a5.9,5.9,0,0,1,1.63-.27,3.38,3.38,0,0,1,1.34.57,13.32,13.32,0,0,1,1.41,1c.93.74,1.83,1.56,2.69,2.38l.43.41L99,77c1-.52,2.13-1,3.2-1.46a15.55,15.55,0,0,1,1.59-.6l.38-.1.17,0s0,0,.07,0a1.76,1.76,0,0,1,.62.19,18.84,18.84,0,0,1,2.85,1.93C108.84,77.63,109.75,78.4,110.69,79.16Z" style="fill:#263238"></path><path d="M260.3,131.21a25.74,25.74,0,0,0-2.25-2.84,13.63,13.63,0,0,0-2.79-2.47,3,3,0,0,0-1-.43,1.17,1.17,0,0,0-.38,0l-.27,0a4,4,0,0,0-.5.1,16.4,16.4,0,0,0-1.8.54c-1.15.42-2.25.91-3.36,1.43l.94.15a25.88,25.88,0,0,0-2.88-2.45,15.84,15.84,0,0,0-1.64-1,6.82,6.82,0,0,0-.94-.42,3.63,3.63,0,0,0-.55-.15,4.09,4.09,0,0,0-.61,0,6.49,6.49,0,0,0-2,.53c-.59.25-1.15.54-1.7.84a24.92,24.92,0,0,0-3.09,2.08c1.15-.45,2.29-.93,3.44-1.33a16.15,16.15,0,0,1,1.71-.55,5.9,5.9,0,0,1,1.63-.27,3.38,3.38,0,0,1,1.34.57,13.32,13.32,0,0,1,1.41,1c.93.74,1.83,1.56,2.69,2.38l.43.41.51-.26c1-.52,2.13-1,3.2-1.46a15.55,15.55,0,0,1,1.59-.6l.38-.1.17,0s0,0,.07,0a1.76,1.76,0,0,1,.62.19,18.84,18.84,0,0,1,2.85,1.93C258.45,129.68,259.36,130.45,260.3,131.21Z" style="fill:#263238"></path></g></svg>